<svg xmlns="http://www.w3.org/2000/svg" xmlns:xlink="http://www.w3.org/1999/xlink" width="512" zoomAndPan="magnify" viewBox="0 0 384 383.999986" height="512" preserveAspectRatio="xMidYMid meet" version="1.0"><path fill="#000000" d="M 77.902344 176.324219 L 51.800781 240.308594 L 25.703125 176.324219 L 7.433594 176.324219 L 42.230469 261.632812 L 61.367188 261.632812 L 96.171875 176.324219 Z M 77.902344 176.324219 " fill-opacity="1" fill-rule="nonzero"/><path fill="#000000" d="M 261.878906 239.28125 C 267.207031 234.046875 269.882812 227.28125 269.882812 218.980469 C 269.882812 210.683594 267.21875 203.917969 261.878906 198.683594 C 256.539062 193.449219 249.640625 190.835938 241.171875 190.835938 C 232.707031 190.835938 225.800781 193.457031 220.46875 198.683594 C 215.128906 203.917969 212.464844 210.683594 212.464844 218.980469 C 212.464844 227.28125 215.128906 234.058594 220.46875 239.28125 C 225.800781 244.515625 232.707031 247.128906 241.171875 247.128906 C 249.640625 247.128906 256.539062 244.515625 261.878906 239.28125 M 212.464844 176.324219 L 212.464844 187.585938 C 220.820312 178.945312 231.257812 174.617188 243.785156 174.617188 C 256.308594 174.617188 266.515625 178.824219 274.753906 187.246094 C 283.109375 195.773438 287.285156 206.355469 287.285156 218.980469 C 287.285156 231.609375 283.109375 242.191406 274.753906 250.71875 C 266.515625 259.140625 256.1875 263.347656 243.785156 263.347656 C 231.378906 263.347656 220.820312 259.027344 212.464844 250.378906 L 212.464844 290.230469 L 195.0625 290.230469 L 195.0625 176.332031 L 212.464844 176.332031 Z M 212.464844 176.324219 " fill-opacity="1" fill-rule="nonzero"/><path fill="#000000" d="M 167.015625 226.753906 C 165.523438 232.570312 162.425781 237.324219 157.691406 240.988281 C 152.703125 244.859375 146.726562 246.789062 139.773438 246.789062 C 131.539062 246.789062 124.75 244.175781 119.421875 238.941406 C 114.082031 233.707031 111.414062 227.058594 111.414062 218.980469 C 111.414062 210.90625 114.082031 204.257812 119.421875 199.015625 C 124.75 193.78125 131.539062 191.167969 139.773438 191.167969 C 146.738281 191.167969 152.703125 193.105469 157.691406 196.964844 C 162.453125 200.65625 165.550781 205.441406 167.035156 211.292969 L 184.707031 211.292969 C 183.0625 200.648438 178.242188 191.945312 170.226562 185.1875 C 161.871094 178.132812 151.726562 174.605469 139.773438 174.605469 C 126.550781 174.605469 115.648438 178.816406 107.0625 187.234375 C 98.367188 195.542969 94.011719 206.121094 94.011719 218.972656 C 94.011719 231.824219 98.367188 242.402344 107.0625 250.710938 C 115.648438 259.128906 126.550781 263.339844 139.773438 263.339844 C 151.714844 263.339844 161.871094 259.8125 170.226562 252.761719 C 178.222656 246.019531 183.035156 237.34375 184.695312 226.746094 L 167.015625 226.746094 Z M 167.015625 226.753906 " fill-opacity="1" fill-rule="nonzero"/><path fill="#000000" d="M 321.234375 91.265625 L 321.234375 135.289062 L 321.132812 135.289062 L 321.214844 135.375 L 277.207031 135.375 L 277.207031 140.882812 L 282.710938 146.394531 L 288.179688 146.394531 L 288.179688 146.433594 C 306.152344 146.433594 320.78125 160.796875 321.234375 178.679688 L 321.234375 185.011719 L 326.757812 190.539062 L 332.273438 190.539062 L 332.273438 140.882812 C 332.273438 140.882812 336.9375 145.566406 336.9375 145.566406 C 337.4375 146.082031 338.136719 146.394531 338.921875 146.394531 L 376.335938 146.394531 L 376.335938 140.855469 L 370.832031 135.363281 L 359.835938 135.363281 C 344.628906 135.363281 332.300781 123.023438 332.300781 107.800781 L 332.273438 107.800781 L 332.273438 96.769531 L 326.765625 91.257812 L 321.242188 91.257812 Z M 321.234375 91.265625 " fill-opacity="1" fill-rule="nonzero"/></svg>