<svg xmlns="http://www.w3.org/2000/svg" xmlns:xlink="http://www.w3.org/1999/xlink" width="512" zoomAndPan="magnify" viewBox="0 0 384 383.999986" height="512" preserveAspectRatio="xMidYMid meet" version="1.0"><path fill="#ffffff" d="M 193.515625 117.1875 L 87.816406 222.910156 L 98.390625 233.484375 L 119.539062 233.484375 L 130.035156 222.988281 L 130.097656 223.0625 C 164.609375 188.550781 220.230469 188.023438 255.398438 221.464844 L 267.542969 233.597656 L 288.75 233.597656 L 299.324219 223.023438 L 193.503906 117.214844 Z M 193.515625 117.1875 " fill-opacity="1" fill-rule="nonzero"/><path fill="#ffffff" d="M 193.628906 20.972656 C 148.820312 20.972656 104.023438 37.984375 69.714844 71.992188 L 102.023438 71.992188 C 129.179688 52.0625 161.40625 42.09375 193.617188 42.09375 C 225.828125 42.09375 258.039062 52.050781 285.195312 71.992188 L 317.503906 71.992188 C 283.21875 37.984375 238.4375 20.972656 193.628906 20.972656 M 317.492188 321.792969 L 285.179688 321.792969 C 258.023438 341.722656 225.800781 351.691406 193.589844 351.691406 C 161.378906 351.691406 129.15625 341.734375 102.011719 321.792969 L 69.699219 321.792969 C 103.984375 355.804688 148.78125 372.8125 193.578125 372.8125 C 238.375 372.8125 283.183594 355.804688 317.480469 321.792969 M 56.046875 87.203125 C 4.851562 151.210938 4.839844 242.636719 56.023438 306.632812 L 70.996094 291.660156 C 27.960938 236.074219 27.972656 157.761719 71.007812 102.164062 L 56.046875 87.191406 Z M 331.046875 87.089844 L 316.085938 102.050781 C 359.207031 157.671875 359.195312 236.113281 316.035156 291.734375 L 330.996094 306.695312 C 382.304688 242.652344 382.328125 151.121094 331.046875 87.078125 " fill-opacity="1" fill-rule="nonzero"/></svg>