<svg xmlns="http://www.w3.org/2000/svg" xmlns:xlink="http://www.w3.org/1999/xlink" width="512" zoomAndPan="magnify" viewBox="0 0 384 383.999986" height="512" preserveAspectRatio="xMidYMid meet" version="1.0"><path fill="#000000" d="M 193.515625 117.128906 L 87.816406 222.796875 L 98.390625 233.363281 L 119.539062 233.363281 L 130.035156 222.871094 L 130.097656 222.945312 C 164.609375 188.453125 220.230469 187.925781 255.398438 221.351562 L 267.542969 233.476562 L 288.75 233.476562 L 299.324219 222.910156 L 193.503906 117.152344 Z M 193.515625 117.128906 " fill-opacity="1" fill-rule="nonzero"/><path fill="#000000" d="M 193.628906 20.960938 C 148.820312 20.960938 104.023438 37.964844 69.714844 71.953125 L 102.023438 71.953125 C 129.179688 52.039062 161.40625 42.074219 193.617188 42.074219 C 225.828125 42.074219 258.039062 52.023438 285.195312 71.953125 L 317.503906 71.953125 C 283.21875 37.964844 238.4375 20.960938 193.628906 20.960938 M 317.492188 321.628906 L 285.179688 321.628906 C 258.023438 341.542969 225.800781 351.507812 193.589844 351.507812 C 161.378906 351.507812 129.15625 341.558594 102.011719 321.628906 L 69.699219 321.628906 C 103.984375 355.617188 148.78125 372.621094 193.578125 372.621094 C 238.375 372.621094 283.183594 355.617188 317.480469 321.628906 M 56.046875 87.160156 C 4.851562 151.132812 4.839844 242.511719 56.023438 306.472656 L 70.996094 291.507812 C 27.960938 235.953125 27.972656 157.679688 71.007812 102.113281 L 56.046875 87.144531 Z M 331.046875 87.046875 L 316.085938 102 C 359.207031 157.589844 359.195312 235.992188 316.035156 291.582031 L 330.996094 306.535156 C 382.304688 242.523438 382.328125 151.042969 331.046875 87.035156 " fill-opacity="1" fill-rule="nonzero"/></svg>