<svg xmlns="http://www.w3.org/2000/svg" xmlns:xlink="http://www.w3.org/1999/xlink" width="512" zoomAndPan="magnify" viewBox="0 0 384 383.999986" height="512" preserveAspectRatio="xMidYMid meet" version="1.0"><path fill="#ffffff" d="M 77.902344 176.234375 L 51.800781 240.152344 L 25.703125 176.234375 L 7.433594 176.234375 L 42.230469 261.457031 L 61.367188 261.457031 L 96.171875 176.234375 Z M 77.902344 176.234375 " fill-opacity="1" fill-rule="nonzero"/><path fill="#ffffff" d="M 261.878906 239.128906 C 267.207031 233.902344 269.882812 227.140625 269.882812 218.851562 C 269.882812 210.558594 267.21875 203.800781 261.878906 198.570312 C 256.539062 193.339844 249.640625 190.730469 241.171875 190.730469 C 232.707031 190.730469 225.800781 193.351562 220.46875 198.570312 C 215.128906 203.800781 212.464844 210.558594 212.464844 218.851562 C 212.464844 227.140625 215.128906 233.910156 220.46875 239.128906 C 225.800781 244.359375 232.707031 246.96875 241.171875 246.96875 C 249.640625 246.96875 256.539062 244.359375 261.878906 239.128906 M 212.464844 176.234375 L 212.464844 187.484375 C 220.820312 178.851562 231.257812 174.527344 243.785156 174.527344 C 256.308594 174.527344 266.515625 178.734375 274.753906 187.144531 C 283.109375 195.664062 287.285156 206.234375 287.285156 218.851562 C 287.285156 231.464844 283.109375 242.035156 274.753906 250.558594 C 266.515625 258.96875 256.1875 263.171875 243.785156 263.171875 C 231.378906 263.171875 220.820312 258.855469 212.464844 250.214844 L 212.464844 290.027344 L 195.0625 290.027344 L 195.0625 176.242188 L 212.464844 176.242188 Z M 212.464844 176.234375 " fill-opacity="1" fill-rule="nonzero"/><path fill="#ffffff" d="M 167.015625 226.617188 C 165.523438 232.425781 162.425781 237.175781 157.691406 240.835938 C 152.703125 244.699219 146.726562 246.628906 139.773438 246.628906 C 131.539062 246.628906 124.75 244.019531 119.421875 238.789062 C 114.082031 233.558594 111.414062 226.921875 111.414062 218.851562 C 111.414062 210.78125 114.082031 204.140625 119.421875 198.902344 C 124.75 193.671875 131.539062 191.0625 139.773438 191.0625 C 146.738281 191.0625 152.703125 193 157.691406 196.855469 C 162.453125 200.542969 165.550781 205.320312 167.035156 211.167969 L 184.707031 211.167969 C 183.0625 200.535156 178.242188 191.839844 170.226562 185.085938 C 161.871094 178.042969 151.726562 174.519531 139.773438 174.519531 C 126.550781 174.519531 115.648438 178.722656 107.0625 187.132812 C 98.367188 195.433594 94.011719 206.003906 94.011719 218.839844 C 94.011719 231.679688 98.367188 242.246094 107.0625 250.546875 C 115.648438 258.957031 126.550781 263.164062 139.773438 263.164062 C 151.714844 263.164062 161.871094 259.640625 170.226562 252.59375 C 178.222656 245.863281 183.035156 237.195312 184.695312 226.605469 L 167.015625 226.605469 Z M 167.015625 226.617188 " fill-opacity="1" fill-rule="nonzero"/><path fill="#ffffff" d="M 321.234375 91.257812 L 321.234375 135.242188 L 321.132812 135.242188 L 321.214844 135.324219 L 277.207031 135.324219 L 277.207031 140.828125 L 282.710938 146.335938 L 288.179688 146.335938 L 288.179688 146.371094 C 306.152344 146.371094 320.78125 160.722656 321.234375 178.585938 L 321.234375 184.914062 L 326.757812 190.4375 L 332.273438 190.4375 L 332.273438 140.828125 C 332.273438 140.828125 336.9375 145.503906 336.9375 145.503906 C 337.4375 146.023438 338.136719 146.335938 338.921875 146.335938 L 376.335938 146.335938 L 376.335938 140.800781 L 370.832031 135.3125 L 359.835938 135.3125 C 344.628906 135.3125 332.300781 122.984375 332.300781 107.777344 L 332.273438 107.777344 L 332.273438 96.753906 L 326.765625 91.25 L 321.242188 91.25 Z M 321.234375 91.257812 " fill-opacity="1" fill-rule="nonzero"/></svg>