<svg xmlns="http://www.w3.org/2000/svg" xmlns:xlink="http://www.w3.org/1999/xlink" width="1000" zoomAndPan="magnify" viewBox="0 0 750 225" height="300" preserveAspectRatio="xMidYMid meet" version="1.0"><path fill="#ffffff" d="M 104.875 113.089844 C 103.347656 124.304688 98.378906 133.441406 90.003906 140.5 C 81.5 147.671875 71.167969 151.261719 59.007812 151.261719 C 45.546875 151.261719 34.449219 146.984375 25.710938 138.417969 C 16.851562 129.972656 12.425781 119.222656 12.425781 106.148438 C 12.425781 93.074219 16.851562 82.328125 25.710938 73.878906 C 34.449219 65.316406 45.546875 61.039062 59.007812 61.039062 C 71.167969 61.039062 81.5 64.625 90.003906 71.800781 C 98.378906 78.855469 103.347656 87.992188 104.875 99.210938 L 86.988281 99.210938 C 85.574219 92.855469 82.328125 87.703125 77.246094 83.765625 C 72.164062 79.839844 66.085938 77.863281 59.007812 77.863281 C 50.617188 77.863281 43.714844 80.527344 38.28125 85.84375 C 32.847656 91.171875 30.136719 97.9375 30.136719 106.136719 C 30.136719 114.339844 32.847656 121.117188 38.28125 126.433594 C 43.714844 131.75 50.617188 134.414062 59.007812 134.414062 C 66.085938 134.414062 72.175781 132.449219 77.246094 128.511719 C 82.316406 124.574219 85.5625 119.433594 86.988281 113.066406 L 104.875 113.066406 Z M 104.875 113.089844 " fill-opacity="1" fill-rule="nonzero"/><path fill="#ffffff" d="M 347.042969 61.039062 C 357.90625 61.039062 366.703125 64.566406 373.433594 71.625 C 380.046875 78.566406 383.355469 87.46875 383.355469 98.34375 L 383.355469 149.53125 L 365.640625 149.53125 L 365.640625 98.34375 C 365.640625 91.988281 363.75 86.894531 359.976562 83.074219 C 356.085938 79.371094 350.886719 77.523438 344.390625 77.523438 C 337.894531 77.523438 332.695312 79.371094 328.804688 83.074219 C 325.019531 86.894531 323.136719 91.976562 323.136719 98.34375 L 323.136719 149.53125 L 305.425781 149.53125 L 305.425781 98.34375 C 305.425781 91.988281 303.53125 86.894531 299.757812 83.074219 C 295.867188 79.371094 290.667969 77.523438 284.171875 77.523438 C 277.675781 77.523438 272.476562 79.371094 268.585938 83.074219 C 264.800781 86.894531 262.917969 91.976562 262.917969 98.34375 L 262.917969 149.53125 L 245.207031 149.53125 L 245.207031 62.769531 L 262.917969 62.769531 L 262.917969 71.789062 C 269.414062 64.613281 277.96875 61.027344 288.601562 61.027344 C 301.347656 61.027344 310.914062 65.945312 317.296875 75.773438 C 324.140625 65.945312 334.0625 61.027344 347.054688 61.027344 " fill-opacity="1" fill-rule="nonzero"/><path fill="#ffffff" d="M 460.171875 126.792969 C 465.605469 121.480469 468.316406 114.597656 468.316406 106.148438 C 468.316406 97.703125 465.59375 90.820312 460.171875 85.503906 C 454.738281 80.1875 447.71875 77.523438 439.097656 77.523438 C 430.472656 77.523438 423.453125 80.1875 418.019531 85.503906 C 412.585938 90.832031 409.875 97.703125 409.875 106.148438 C 409.875 114.597656 412.585938 121.480469 418.019531 126.792969 C 423.453125 132.121094 430.472656 134.773438 439.097656 134.773438 C 447.71875 134.773438 454.738281 132.109375 460.171875 126.792969 M 409.875 62.769531 L 409.875 74.21875 C 418.382812 65.433594 429 61.027344 441.757812 61.027344 C 454.519531 61.027344 464.90625 65.304688 473.28125 73.867188 C 481.789062 82.550781 486.027344 93.296875 486.027344 106.136719 C 486.027344 118.980469 481.777344 129.726562 473.28125 138.410156 C 464.894531 146.972656 454.390625 151.25 441.757812 151.25 C 429.128906 151.25 418.382812 146.855469 409.875 138.058594 L 409.875 178.644531 L 392.164062 178.644531 L 392.164062 62.769531 Z M 409.875 62.769531 " fill-opacity="1" fill-rule="nonzero"/><path fill="#ffffff" d="M 539.058594 134.773438 C 547.683594 134.773438 554.703125 132.109375 560.136719 126.792969 C 565.570312 121.480469 568.28125 114.597656 568.28125 106.148438 C 568.28125 97.703125 565.558594 90.820312 560.136719 85.503906 C 554.703125 80.1875 547.683594 77.523438 539.058594 77.523438 C 530.4375 77.523438 523.414062 80.1875 517.984375 85.503906 C 512.550781 90.832031 509.839844 97.703125 509.839844 106.148438 C 509.839844 114.597656 512.550781 121.480469 517.984375 126.792969 C 523.414062 132.121094 530.4375 134.773438 539.058594 134.773438 M 585.992188 62.769531 L 585.992188 149.519531 L 568.28125 149.519531 L 568.28125 138.070312 C 559.773438 146.867188 549.15625 151.261719 536.394531 151.261719 C 523.636719 151.261719 513.25 146.984375 504.863281 138.417969 C 496.355469 129.738281 492.117188 118.988281 492.117188 106.148438 C 492.117188 93.308594 496.367188 82.5625 504.863281 73.878906 C 513.25 65.316406 523.753906 61.039062 536.394531 61.039062 C 549.039062 61.039062 559.773438 65.433594 568.28125 74.230469 L 568.28125 62.78125 L 585.992188 62.78125 Z M 585.992188 62.769531 " fill-opacity="1" fill-rule="nonzero"/><path fill="#ffffff" d="M 601.753906 141.714844 C 595.84375 136.164062 592.898438 128.933594 592.898438 120.03125 L 610.609375 120.03125 C 610.609375 125.578125 613.027344 129.632812 617.878906 132.179688 C 619.757812 133.105469 621.882812 133.804688 624.257812 134.261719 C 626.136719 134.609375 628.089844 134.785156 630.097656 134.785156 C 641.898438 134.785156 647.808594 131.023438 647.808594 123.511719 C 647.808594 117.15625 641.082031 113.394531 627.621094 112.238281 C 606.835938 110.390625 596.449219 102.003906 596.449219 87.082031 C 596.449219 80.140625 598.808594 74.300781 603.53125 69.558594 C 609.195312 63.890625 617.457031 61.050781 628.320312 61.050781 C 639.1875 61.050781 647.984375 64.066406 654.003906 70.070312 C 659.320312 75.269531 661.96875 82.105469 661.96875 90.539062 L 644.257812 90.539062 C 644.257812 81.871094 638.941406 77.523438 628.320312 77.523438 C 618.871094 77.523438 614.148438 80.703125 614.148438 87.070312 C 614.148438 92.621094 619.164062 95.808594 629.210938 96.617188 C 641.605469 97.773438 650.636719 100.320312 656.304688 104.246094 C 662.4375 108.523438 665.511719 114.949219 665.511719 123.5 C 665.511719 130.90625 662.859375 137.144531 657.542969 142.242188 C 651.28125 148.257812 642.132812 151.261719 630.085938 151.261719 C 618.039062 151.261719 608.355469 148.082031 601.753906 141.714844 " fill-opacity="1" fill-rule="nonzero"/><path fill="#ffffff" d="M 673.863281 141.714844 C 667.953125 136.164062 665.007812 128.933594 665.007812 120.03125 L 682.71875 120.03125 C 682.71875 125.578125 685.140625 129.632812 689.988281 132.179688 C 691.867188 133.105469 693.996094 133.804688 696.367188 134.261719 C 698.25 134.609375 700.199219 134.785156 702.207031 134.785156 C 714.007812 134.785156 719.921875 131.023438 719.921875 123.511719 C 719.921875 117.15625 713.191406 113.394531 699.730469 112.238281 C 678.945312 110.390625 668.558594 102.003906 668.558594 87.082031 C 668.558594 80.140625 670.921875 74.300781 675.640625 69.558594 C 681.308594 63.890625 689.566406 61.050781 700.433594 61.050781 C 711.296875 61.050781 720.097656 64.066406 726.113281 70.070312 C 731.429688 75.269531 734.082031 82.105469 734.082031 90.539062 L 716.371094 90.539062 C 716.371094 81.871094 711.054688 77.523438 700.433594 77.523438 C 690.980469 77.523438 686.261719 80.703125 686.261719 87.070312 C 686.261719 92.621094 691.273438 95.808594 701.320312 96.617188 C 713.71875 97.773438 722.75 100.320312 728.414062 104.246094 C 734.546875 108.523438 737.621094 114.949219 737.621094 123.5 C 737.621094 130.90625 734.96875 137.144531 729.652344 142.242188 C 723.390625 148.257812 714.242188 151.261719 702.195312 151.261719 C 690.152344 151.261719 680.464844 148.082031 673.863281 141.714844 " fill-opacity="1" fill-rule="nonzero"/><path fill="#ffffff" d="M 173.84375 78.214844 L 136.984375 115.089844 L 140.664062 118.78125 L 148.035156 118.78125 L 151.691406 115.121094 L 151.714844 115.144531 C 163.75 103.113281 183.15625 102.925781 195.414062 114.585938 L 199.640625 118.816406 L 207.039062 118.816406 L 210.730469 115.121094 L 173.820312 78.226562 Z M 173.84375 78.214844 " fill-opacity="1" fill-rule="nonzero"/><path fill="#ffffff" d="M 173.890625 44.660156 C 158.269531 44.660156 142.636719 50.59375 130.675781 62.453125 L 141.949219 62.453125 C 151.425781 55.5 162.652344 52.03125 173.890625 52.03125 C 185.132812 52.03125 196.359375 55.5 205.835938 62.453125 L 217.097656 62.453125 C 205.144531 50.59375 189.523438 44.660156 173.890625 44.660156 M 217.097656 149.566406 L 205.835938 149.566406 C 196.359375 156.519531 185.132812 159.988281 173.890625 159.988281 C 162.652344 159.988281 151.425781 156.519531 141.949219 149.566406 L 130.6875 149.566406 C 142.636719 161.425781 158.269531 167.359375 173.890625 167.359375 C 189.511719 167.359375 205.144531 161.425781 217.109375 149.566406 M 125.90625 67.757812 C 108.054688 90.085938 108.042969 121.96875 125.90625 144.285156 L 131.128906 139.0625 C 116.117188 119.679688 116.128906 92.363281 131.128906 72.980469 L 125.917969 67.757812 Z M 221.816406 67.710938 L 216.59375 72.933594 C 231.632812 92.328125 231.632812 119.691406 216.582031 139.085938 L 221.804688 144.308594 C 239.703125 121.96875 239.703125 90.050781 221.828125 67.710938 " fill-opacity="1" fill-rule="nonzero"/></svg>