<svg xmlns="http://www.w3.org/2000/svg" xmlns:xlink="http://www.w3.org/1999/xlink" width="900" zoomAndPan="magnify" viewBox="0 0 675 209.999996" height="280" preserveAspectRatio="xMidYMid meet" version="1.0"><path fill="#ffffff" d="M 62.828125 93.949219 L 43.53125 141.214844 L 24.226562 93.949219 L 10.714844 93.949219 L 36.449219 156.976562 L 50.601562 156.976562 L 76.339844 93.949219 Z M 62.828125 93.949219 " fill-opacity="1" fill-rule="nonzero"/><path fill="#ffffff" d="M 106.964844 146.011719 C 113.050781 146.011719 118.074219 144.082031 122.019531 140.210938 C 125.964844 136.351562 127.9375 131.425781 127.9375 125.457031 C 127.9375 119.492188 125.964844 114.574219 122.019531 110.707031 C 118.074219 106.847656 113.050781 104.90625 106.964844 104.90625 C 100.878906 104.90625 95.855469 106.835938 91.910156 110.707031 C 87.964844 114.574219 85.992188 119.492188 85.992188 125.457031 C 85.992188 131.425781 87.964844 136.339844 91.910156 140.210938 C 95.855469 144.082031 100.871094 146.011719 106.964844 146.011719 M 106.964844 92.683594 C 116.742188 92.683594 124.8125 95.792969 131.160156 102.015625 C 137.589844 108.152344 140.8125 115.96875 140.8125 125.457031 C 140.8125 134.949219 137.589844 142.773438 131.160156 148.902344 C 124.8125 155.125 116.742188 158.234375 106.964844 158.234375 C 97.1875 158.234375 89.121094 155.125 82.773438 148.902344 C 76.339844 142.765625 73.121094 134.949219 73.121094 125.457031 C 73.121094 115.96875 76.339844 108.144531 82.773438 102.015625 C 89.121094 95.792969 97.1875 92.683594 106.964844 92.683594 " fill-opacity="1" fill-rule="nonzero"/><path fill="#ffffff" d="M 267.730469 119.785156 C 266.523438 115.335938 264.128906 111.761719 260.523438 109.070312 C 256.832031 106.296875 252.496094 104.90625 247.523438 104.90625 C 242.550781 104.90625 238.21875 106.296875 234.523438 109.070312 C 230.925781 111.761719 228.523438 115.335938 227.316406 119.785156 Z M 227.316406 131.132812 C 228.515625 135.582031 230.917969 139.15625 234.523438 141.847656 C 238.21875 144.621094 242.550781 146.003906 247.523438 146.003906 C 255.070312 146.003906 260.859375 143.144531 264.898438 137.429688 L 279.1875 137.429688 C 276.785156 143.734375 272.796875 148.777344 267.214844 152.550781 C 261.550781 156.335938 254.992188 158.226562 247.523438 158.226562 C 237.746094 158.226562 229.636719 155.113281 223.203125 148.894531 C 216.855469 142.757812 213.679688 134.941406 213.679688 125.449219 C 213.679688 115.957031 216.847656 108.136719 223.203125 102.007812 C 229.636719 95.785156 237.746094 92.675781 247.523438 92.675781 C 257.300781 92.675781 265.371094 95.785156 271.71875 102.007812 C 278.148438 108.144531 281.371094 115.957031 281.371094 125.449219 C 281.371094 126.96875 281.191406 128.855469 280.855469 131.125 L 227.324219 131.125 Z M 227.316406 131.132812 " fill-opacity="1" fill-rule="nonzero"/><path fill="#ffffff" d="M 363.207031 140.464844 C 367.152344 136.601562 369.125 131.597656 369.125 125.457031 C 369.125 119.320312 367.152344 114.324219 363.207031 110.460938 C 359.261719 106.601562 354.152344 104.664062 347.890625 104.664062 C 341.625 104.664062 336.527344 106.59375 332.570312 110.460938 C 328.625 114.332031 326.652344 119.332031 326.652344 125.457031 C 326.652344 131.585938 328.625 136.59375 332.570312 140.464844 C 336.515625 144.332031 341.625 146.261719 347.890625 146.261719 C 354.152344 146.261719 359.253906 144.332031 363.207031 140.464844 M 326.664062 93.949219 L 326.664062 102.269531 C 332.839844 95.886719 340.5625 92.691406 349.828125 92.691406 C 359.09375 92.691406 366.636719 95.804688 372.730469 102.023438 C 378.910156 108.328125 381.996094 116.144531 381.996094 125.46875 C 381.996094 134.789062 378.910156 142.613281 372.730469 148.910156 C 366.636719 155.132812 359.007812 158.242188 349.828125 158.242188 C 340.648438 158.242188 332.839844 155.046875 326.664062 148.667969 L 326.664062 178.113281 L 313.789062 178.113281 L 313.789062 93.957031 L 326.664062 93.957031 Z M 326.664062 93.949219 " fill-opacity="1" fill-rule="nonzero"/><path fill="#ffffff" d="M 419.054688 146.011719 C 425.140625 146.011719 430.164062 144.082031 434.109375 140.210938 C 438.054688 136.351562 440.027344 131.425781 440.027344 125.457031 C 440.027344 119.492188 438.054688 114.574219 434.109375 110.707031 C 430.164062 106.847656 425.140625 104.90625 419.054688 104.90625 C 412.96875 104.90625 407.941406 106.835938 403.996094 110.707031 C 400.050781 114.574219 398.078125 119.492188 398.078125 125.457031 C 398.078125 131.425781 400.050781 136.339844 403.996094 140.210938 C 407.941406 144.082031 412.957031 146.011719 419.054688 146.011719 M 419.054688 92.683594 C 428.832031 92.683594 436.898438 95.792969 443.246094 102.015625 C 449.679688 108.152344 452.898438 115.96875 452.898438 125.457031 C 452.898438 134.949219 449.679688 142.773438 443.246094 148.902344 C 436.898438 155.125 428.832031 158.234375 419.054688 158.234375 C 409.273438 158.234375 401.207031 155.125 394.859375 148.902344 C 388.429688 142.765625 385.207031 134.949219 385.207031 125.457031 C 385.207031 115.96875 388.429688 108.144531 394.859375 102.015625 C 401.207031 95.792969 409.273438 92.683594 419.054688 92.683594 " fill-opacity="1" fill-rule="nonzero"/><path fill="#ffffff" d="M 490.21875 146.261719 C 496.480469 146.261719 501.582031 144.332031 505.535156 140.464844 C 509.480469 136.601562 511.453125 131.597656 511.453125 125.46875 C 511.453125 119.339844 509.480469 114.332031 505.535156 110.46875 C 501.589844 106.609375 496.480469 104.671875 490.21875 104.671875 C 483.953125 104.671875 478.855469 106.601562 474.910156 110.46875 C 470.964844 114.339844 468.992188 119.339844 468.992188 125.46875 C 468.992188 131.597656 470.964844 136.601562 474.910156 140.464844 C 478.855469 144.332031 483.960938 146.261719 490.21875 146.261719 M 524.316406 72.957031 L 524.316406 156.976562 L 511.445312 156.976562 L 511.445312 148.65625 C 505.265625 155.046875 497.550781 158.234375 488.277344 158.234375 C 479.007812 158.234375 471.460938 155.125 465.375 148.910156 C 459.195312 142.605469 456.109375 134.789062 456.109375 125.457031 C 456.109375 116.128906 459.195312 108.3125 465.375 102.015625 C 471.46875 95.792969 479.097656 92.683594 488.277344 92.683594 C 497.457031 92.683594 505.265625 95.878906 511.445312 102.261719 L 511.445312 72.957031 Z M 524.316406 72.957031 " fill-opacity="1" fill-rule="nonzero"/><path fill="#ffffff" d="M 583.417969 119.785156 C 582.210938 115.335938 579.816406 111.761719 576.210938 109.070312 C 572.519531 106.296875 568.183594 104.90625 563.210938 104.90625 C 558.238281 104.90625 553.90625 106.296875 550.210938 109.070312 C 546.613281 111.761719 544.210938 115.335938 543.003906 119.785156 Z M 543.011719 131.132812 C 544.210938 135.582031 546.613281 139.15625 550.222656 141.847656 C 553.914062 144.621094 558.246094 146.003906 563.21875 146.003906 C 570.765625 146.003906 576.554688 143.144531 580.59375 137.429688 L 594.875 137.429688 C 592.472656 143.734375 588.484375 148.777344 582.902344 152.550781 C 577.238281 156.335938 570.679688 158.226562 563.210938 158.226562 C 553.433594 158.226562 545.324219 155.113281 538.890625 148.894531 C 532.542969 142.757812 529.367188 134.941406 529.367188 125.449219 C 529.367188 115.957031 532.535156 108.136719 538.890625 102.007812 C 545.324219 95.785156 553.433594 92.675781 563.210938 92.675781 C 572.988281 92.675781 581.058594 95.785156 587.40625 102.007812 C 593.835938 108.144531 597.058594 115.957031 597.058594 125.449219 C 597.058594 126.96875 596.878906 128.855469 596.542969 131.125 L 543.011719 131.125 Z M 543.011719 131.132812 " fill-opacity="1" fill-rule="nonzero"/><path fill="#ffffff" d="M 242.203125 62.445312 L 253.726562 62.445312 L 274.777344 83.46875 L 259.738281 83.46875 L 247.980469 71.703125 L 236.226562 83.46875 L 221.121094 83.46875 Z M 242.203125 62.445312 " fill-opacity="1" fill-rule="nonzero"/><path fill="#ffffff" d="M 198.015625 131.199219 C 196.910156 135.5 194.617188 139.015625 191.121094 141.71875 C 187.425781 144.578125 183.011719 146.003906 177.867188 146.003906 C 171.773438 146.003906 166.757812 144.070312 162.8125 140.203125 C 158.867188 136.339844 156.894531 131.417969 156.894531 125.449219 C 156.894531 119.480469 158.867188 114.566406 162.8125 110.699219 C 166.757812 106.835938 171.773438 104.898438 177.867188 104.898438 C 183.019531 104.898438 187.4375 106.332031 191.121094 109.179688 C 194.636719 111.902344 196.929688 115.445312 198.03125 119.769531 L 211.097656 119.769531 C 209.882812 111.914062 206.320312 105.472656 200.382812 100.480469 C 194.207031 95.273438 186.703125 92.667969 177.867188 92.667969 C 168.089844 92.667969 160.023438 95.777344 153.675781 102 C 147.242188 108.136719 144.023438 115.949219 144.023438 125.441406 C 144.023438 134.933594 147.242188 142.757812 153.675781 148.886719 C 160.023438 155.105469 168.089844 158.207031 177.867188 158.207031 C 186.703125 158.207031 194.214844 155.605469 200.382812 150.394531 C 206.300781 145.421875 209.859375 139.003906 211.082031 131.175781 L 198.007812 131.175781 Z M 198.015625 131.199219 " fill-opacity="1" fill-rule="nonzero"/><path fill="#ffffff" d="M 659.351562 63.683594 L 651.226562 63.683594 C 639.980469 63.683594 630.859375 54.5625 630.859375 43.320312 L 630.835938 43.320312 L 630.835938 35.167969 L 626.765625 31.09375 L 622.683594 31.09375 L 622.683594 63.625 L 622.609375 63.625 L 622.667969 63.683594 L 590.121094 63.683594 L 590.121094 67.765625 L 594.191406 71.835938 L 598.238281 71.835938 L 598.238281 71.863281 C 611.53125 71.863281 622.347656 82.476562 622.675781 95.683594 L 622.675781 100.363281 L 626.753906 104.453125 L 630.835938 104.453125 L 630.835938 67.765625 C 630.835938 67.765625 634.292969 71.222656 634.292969 71.222656 C 634.664062 71.601562 635.175781 71.835938 635.757812 71.835938 L 663.433594 71.835938 L 663.433594 67.75 L 659.363281 63.695312 Z M 659.351562 63.683594 " fill-opacity="1" fill-rule="nonzero"/></svg>